<mxfile host="app.diagrams.net" agent="Mozilla/5.0 (Windows NT 10.0; Win64; x64) AppleWebKit/537.36 (KHTML, like Gecko) Chrome/127.0.0.0 Safari/537.36" version="24.7.7">
  <diagram name="Page-1" id="ByNHtKxfdI7K94zmAv6f">
    <mxGraphModel dx="794" dy="446" grid="0" gridSize="10" guides="1" tooltips="1" connect="1" arrows="1" fold="1" page="1" pageScale="1" pageWidth="850" pageHeight="1100" math="0" shadow="0">
      <root>
        <mxCell id="0" />
        <mxCell id="1" parent="0" />
        <mxCell id="1I_jDJD9uWRduoqUSSoG-1" value="" style="html=1;verticalLabelPosition=bottom;align=center;labelBackgroundColor=#ffffff;verticalAlign=top;strokeWidth=2;strokeColor=#0080F0;shadow=0;dashed=0;shape=mxgraph.ios7.icons.box;" parent="1" vertex="1">
          <mxGeometry x="430" y="135" width="190" height="200" as="geometry" />
        </mxCell>
        <mxCell id="1I_jDJD9uWRduoqUSSoG-2" value="" style="sketch=0;aspect=fixed;pointerEvents=1;shadow=0;dashed=0;html=1;strokeColor=none;labelPosition=center;verticalLabelPosition=bottom;verticalAlign=top;align=center;fillColor=#00188D;shape=mxgraph.mscae.enterprise.lock_unlocked" parent="1" vertex="1">
          <mxGeometry x="491.7" y="210" width="66.6" height="90" as="geometry" />
        </mxCell>
        <mxCell id="1I_jDJD9uWRduoqUSSoG-5" style="edgeStyle=orthogonalEdgeStyle;rounded=0;orthogonalLoop=1;jettySize=auto;html=1;" parent="1" source="1I_jDJD9uWRduoqUSSoG-4" target="1I_jDJD9uWRduoqUSSoG-1" edge="1">
          <mxGeometry relative="1" as="geometry" />
        </mxCell>
        <mxCell id="1I_jDJD9uWRduoqUSSoG-4" value="" style="image;sketch=0;aspect=fixed;html=1;points=[];align=center;fontSize=12;image=img/lib/mscae/Key.svg;" parent="1" vertex="1">
          <mxGeometry x="120" y="180" width="68.2" height="110" as="geometry" />
        </mxCell>
        <mxCell id="1I_jDJD9uWRduoqUSSoG-6" value="&lt;b&gt;private&lt;/b&gt;" style="text;html=1;align=center;verticalAlign=middle;resizable=0;points=[];autosize=1;strokeColor=none;fillColor=none;" parent="1" vertex="1">
          <mxGeometry x="120" y="300" width="60" height="30" as="geometry" />
        </mxCell>
        <mxCell id="1I_jDJD9uWRduoqUSSoG-7" value="&lt;b&gt;public&lt;/b&gt;" style="text;html=1;align=center;verticalAlign=middle;resizable=0;points=[];autosize=1;strokeColor=none;fillColor=none;" parent="1" vertex="1">
          <mxGeometry x="491.7" y="305" width="60" height="30" as="geometry" />
        </mxCell>
        <mxCell id="1I_jDJD9uWRduoqUSSoG-10" value="" style="image;html=1;image=img/lib/clip_art/computers/Server_128x128.png" parent="1" vertex="1">
          <mxGeometry x="465.85" y="420" width="111.7" height="100" as="geometry" />
        </mxCell>
        <mxCell id="1I_jDJD9uWRduoqUSSoG-11" value="&lt;b&gt;Box/Server/Node/Instance&lt;/b&gt;" style="text;html=1;align=center;verticalAlign=middle;resizable=0;points=[];autosize=1;strokeColor=none;fillColor=none;" parent="1" vertex="1">
          <mxGeometry x="440" y="520" width="170" height="30" as="geometry" />
        </mxCell>
        <mxCell id="1I_jDJD9uWRduoqUSSoG-12" value="" style="sketch=0;aspect=fixed;pointerEvents=1;shadow=0;dashed=0;html=1;strokeColor=none;labelPosition=center;verticalLabelPosition=bottom;verticalAlign=top;align=center;fillColor=#00188D;shape=mxgraph.mscae.enterprise.lock_unlocked" parent="1" vertex="1">
          <mxGeometry x="501.34999999999997" y="380" width="40.7" height="55" as="geometry" />
        </mxCell>
        <mxCell id="1I_jDJD9uWRduoqUSSoG-14" style="edgeStyle=orthogonalEdgeStyle;rounded=0;orthogonalLoop=1;jettySize=auto;html=1;" parent="1" source="1I_jDJD9uWRduoqUSSoG-13" edge="1">
          <mxGeometry relative="1" as="geometry">
            <mxPoint x="460" y="445" as="targetPoint" />
          </mxGeometry>
        </mxCell>
        <mxCell id="1I_jDJD9uWRduoqUSSoG-13" value="" style="image;sketch=0;aspect=fixed;html=1;points=[];align=center;fontSize=12;image=img/lib/mscae/Key.svg;" parent="1" vertex="1">
          <mxGeometry x="120" y="390" width="68.2" height="110" as="geometry" />
        </mxCell>
        <mxCell id="1I_jDJD9uWRduoqUSSoG-15" value="" style="html=1;verticalLabelPosition=bottom;align=center;labelBackgroundColor=#ffffff;verticalAlign=top;strokeWidth=2;strokeColor=#0080F0;shadow=0;dashed=0;shape=mxgraph.ios7.icons.user;" parent="1" vertex="1">
          <mxGeometry x="130" y="520" width="50" height="60" as="geometry" />
        </mxCell>
        <mxCell id="1I_jDJD9uWRduoqUSSoG-16" value="&lt;b&gt;public&lt;/b&gt;" style="text;html=1;align=center;verticalAlign=middle;resizable=0;points=[];autosize=1;strokeColor=none;fillColor=none;" parent="1" vertex="1">
          <mxGeometry x="491.7" y="350" width="60" height="30" as="geometry" />
        </mxCell>
        <mxCell id="1I_jDJD9uWRduoqUSSoG-17" value="&lt;b&gt;private&lt;/b&gt;" style="text;html=1;align=center;verticalAlign=middle;resizable=0;points=[];autosize=1;strokeColor=none;fillColor=none;" parent="1" vertex="1">
          <mxGeometry x="120" y="360" width="60" height="30" as="geometry" />
        </mxCell>
        <mxCell id="1I_jDJD9uWRduoqUSSoG-18" value="&lt;b&gt;Authentication&lt;/b&gt;" style="text;html=1;align=center;verticalAlign=middle;resizable=0;points=[];autosize=1;strokeColor=none;fillColor=none;" parent="1" vertex="1">
          <mxGeometry x="260" y="410" width="110" height="30" as="geometry" />
        </mxCell>
        <mxCell id="1I_jDJD9uWRduoqUSSoG-19" value="" style="image;html=1;image=img/lib/clip_art/computers/Server_128x128.png" parent="1" vertex="1">
          <mxGeometry x="465.85" y="730" width="111.7" height="100" as="geometry" />
        </mxCell>
        <mxCell id="1I_jDJD9uWRduoqUSSoG-20" value="" style="image;sketch=0;aspect=fixed;html=1;points=[];align=center;fontSize=12;image=img/lib/mscae/Azure_Firewall.svg;" parent="1" vertex="1">
          <mxGeometry x="270" y="720" width="100" height="100" as="geometry" />
        </mxCell>
        <mxCell id="1I_jDJD9uWRduoqUSSoG-21" value="" style="sketch=0;aspect=fixed;pointerEvents=1;shadow=0;dashed=0;html=1;strokeColor=none;labelPosition=center;verticalLabelPosition=bottom;verticalAlign=top;align=center;fillColor=#00188D;shape=mxgraph.azure.laptop" parent="1" vertex="1">
          <mxGeometry x="99.99999999999999" y="930" width="133.33" height="80" as="geometry" />
        </mxCell>
        <mxCell id="1I_jDJD9uWRduoqUSSoG-22" value="" style="verticalLabelPosition=bottom;html=1;verticalAlign=top;align=center;strokeColor=none;fillColor=#00BEF2;shape=mxgraph.azure.github_code;pointerEvents=1;" parent="1" vertex="1">
          <mxGeometry x="451.7" y="905" width="100" height="130" as="geometry" />
        </mxCell>
        <mxCell id="1I_jDJD9uWRduoqUSSoG-23" style="edgeStyle=orthogonalEdgeStyle;rounded=0;orthogonalLoop=1;jettySize=auto;html=1;entryX=0;entryY=0.5;entryDx=0;entryDy=0;entryPerimeter=0;" parent="1" source="1I_jDJD9uWRduoqUSSoG-21" target="1I_jDJD9uWRduoqUSSoG-22" edge="1">
          <mxGeometry relative="1" as="geometry" />
        </mxCell>
        <mxCell id="1I_jDJD9uWRduoqUSSoG-24" style="edgeStyle=orthogonalEdgeStyle;rounded=0;orthogonalLoop=1;jettySize=auto;html=1;entryX=0.92;entryY=0.5;entryDx=0;entryDy=0;entryPerimeter=0;" parent="1" source="1I_jDJD9uWRduoqUSSoG-22" target="1I_jDJD9uWRduoqUSSoG-21" edge="1">
          <mxGeometry relative="1" as="geometry" />
        </mxCell>
      </root>
    </mxGraphModel>
  </diagram>
</mxfile>
